<svg width="470" height="833" viewBox="0 0 470 833" fill="none" xmlns="http://www.w3.org/2000/svg">
<g clip-path="url(#clip0_2315_422)">
<path d="M0 0H470V803C470 819.569 456.569 833 440 833H30C13.4315 833 0 819.569 0 803V0Z" fill="url(#paint0_linear_2315_422)"/>
<path opacity="0.4" fill-rule="evenodd" clip-rule="evenodd" d="M494.814 743.05C494.814 743.05 491.774 573.354 422.876 546.82C362.636 531.04 316.193 653.516 262.328 653.516C199.55 653.516 169.964 582.437 109.012 582.437C64.5577 582.437 21.1484 644.233 -39.3885 622.812C-59.5255 615.687 -89.5238 603.426 -89.5238 603.426L-88.5261 837.237L494.814 853.012V743.05Z" fill="url(#paint1_linear_2315_422)"/>
<path opacity="0.6" fill-rule="evenodd" clip-rule="evenodd" d="M-106.31 867.961C-106.31 867.961 -102.264 642.101 -10.5623 606.785C69.6149 585.782 131.429 748.794 203.123 748.794C286.679 748.794 326.057 654.19 407.182 654.19C466.35 654.19 524.127 736.439 604.7 707.929C631.501 698.445 671.429 682.125 671.429 682.125L670.101 993.322L-106.31 1014.32V867.961Z" fill="url(#paint2_linear_2315_422)"/>
</g>
<defs>
<linearGradient id="paint0_linear_2315_422" x1="-64.0089" y1="0" x2="-64.0089" y2="1059.89" gradientUnits="userSpaceOnUse">
<stop stop-color="#1B0F36"/>
<stop offset="0.625" stop-color="#2F1C78"/>
<stop offset="1" stop-color="#321E82"/>
</linearGradient>
<linearGradient id="paint1_linear_2315_422" x1="574.394" y1="545.417" x2="574.394" y2="936.794" gradientUnits="userSpaceOnUse">
<stop stop-color="#1B0F36"/>
<stop offset="0.625" stop-color="#2F1C78"/>
<stop offset="1" stop-color="#321E82"/>
</linearGradient>
<linearGradient id="paint2_linear_2315_422" x1="-212.229" y1="604.917" x2="-212.229" y2="1125.83" gradientUnits="userSpaceOnUse">
<stop stop-color="#1B0F36"/>
<stop offset="0.625" stop-color="#2F1C78"/>
<stop offset="1" stop-color="#321E82"/>
</linearGradient>
<clipPath id="clip0_2315_422">
<path d="M0 0H470V803C470 819.569 456.569 833 440 833H30C13.4315 833 0 819.569 0 803V0Z" fill="white"/>
</clipPath>
</defs>
</svg>
